<svg version="1.1" xmlns="http://www.w3.org/2000/svg" xmlns:xlink="http://www.w3.org/1999/xlink" width="102.08788" height="69.24559" viewBox="0,0,102.08788,69.24559"><g transform="translate(-188.95485,-145.3772)"><g data-paper-data="{&quot;isPaintingLayer&quot;:true}" fill-rule="nonzero" stroke="#000000" stroke-width="1.25" stroke-linecap="round" stroke-linejoin="miter" stroke-miterlimit="10" stroke-dasharray="" stroke-dashoffset="0" style="mix-blend-mode: normal"><g><path d="M189.60132,146.0022h18.01355v5.65132h6.18112v6.18112h6.00451v5.65131h7.06414v13.59846h24.98645v-5.82791h7.06414v-7.06414h23.66486v6.16588h6.94187v6.7271h-6.20963v6.20963h-6.8306v-6.62361h5.1747h0.70535v-5.36793h-11.78417v24.15388h-5.386v5.77667h-26.47042h-23.52864v-5.48952h-7.90491v-6.07506h-5.34313v-20.3203v-10.97154h-4.53801h-2.11512v-7.46574h-5.7091z" fill="#ff0000"/><path d="M189.86217,207.33113h18.22222v-5.55556h6.44445v5.44445h33.55556h9.77778v-5.55556h6.66666v5.66667h11.44445v-12.77778h6.44444v-5.88889h8v6.88889h-7.33333v12.33334h-6v6.11111h-37.22222h-50z" fill="#308900"/></g></g></g></svg>