<svg version="1.1" xmlns="http://www.w3.org/2000/svg" xmlns:xlink="http://www.w3.org/1999/xlink" width="102.08787" height="69.2456" viewBox="0,0,102.08787,69.2456"><g transform="translate(-188.95486,-145.37721)"><g data-paper-data="{&quot;isPaintingLayer&quot;:true}" fill-rule="nonzero" stroke-linejoin="miter" stroke-miterlimit="10" stroke-dasharray="" stroke-dashoffset="0" style="mix-blend-mode: normal"><path d="M189.66876,150.66667v-4.8h18.2v4.8z" fill="#ff0000" stroke="none" stroke-width="0" stroke-linecap="butt"/><path d="M215.06876,199.06667v-21.8h45.8v21.8z" fill="#ff0000" stroke="none" stroke-width="0" stroke-linecap="butt"/><path d="M202.06876,189.46667v-31.6h18.2v31.6z" fill="#ff0000" stroke="none" stroke-width="0" stroke-linecap="butt"/><path d="M195.3521,158.13333v-11.5h9.5v11.5z" fill="#ff0000" stroke="none" stroke-width="0" stroke-linecap="butt"/><path d="M200.8521,158.13333v-7.66666h6.83333v7.66666z" fill="#ff0000" stroke="none" stroke-width="0" stroke-linecap="butt"/><path d="M204.18543,157.8v-6.16667h9.66667v6.16667z" fill="#ff0000" stroke="none" stroke-width="0" stroke-linecap="butt"/><path d="M214.8521,179.46667v-16h12.16666v16z" fill="#ff0000" stroke="none" stroke-width="0" stroke-linecap="butt"/><path d="M207.41162,195.75238v-10.57143h10.71429v10.57143z" fill="#ff0000" stroke="none" stroke-width="0" stroke-linecap="butt"/><path d="M215.12591,201.46667v-8.42857h30.42857v8.42857z" fill="#ff0000" stroke="none" stroke-width="0" stroke-linecap="butt"/><path d="M251.98304,201.18095v-30h13.14286v30z" fill="#ff0000" stroke="none" stroke-width="0" stroke-linecap="butt"/><path d="M244.12591,201.32381v-2.14286h13.85714v2.14286z" fill="#ff0000" stroke="none" stroke-width="0" stroke-linecap="butt"/><path d="M237.12591,200.18095v-9.42857h22.42857v9.42857z" fill="#ff0000" stroke="none" stroke-width="0" stroke-linecap="butt"/><path d="M259.12591,171.18095v-7h23.71429v7z" fill="#ff0000" stroke="none" stroke-width="0" stroke-linecap="butt"/><path d="M261.84019,195.32381v-26.57143h9v26.57143z" fill="#ff0000" stroke="none" stroke-width="0" stroke-linecap="butt"/><path d="M282.55448,176.89524v-6.71429h7.14285v6.71429z" fill="#ff0000" stroke="none" stroke-width="0" stroke-linecap="butt"/><path d="M276.6021,183.24445v-6.88889h7v6.88889z" fill="#ff0000" stroke="none" stroke-width="0" stroke-linecap="butt"/><path d="M190.01876,214.13333v-6.83333h87.16667v6.83333z" fill="#308900" stroke="none" stroke-width="0" stroke-linecap="butt"/><path d="M208.33126,208.34167v-6.75h6.375v6.75z" fill="#308900" stroke="none" stroke-width="0" stroke-linecap="butt"/><path d="M258.20626,209.96667v-8.625h6.375v8.625z" fill="#308900" stroke="none" stroke-width="0" stroke-linecap="butt"/><path d="M276.45626,207.84167v-13.21078h6.875v13.21078z" fill="#308900" stroke="none" stroke-width="0" stroke-linecap="butt"/><path d="M282.58126,195.34167v-6.75h7.75v6.75z" fill="#308900" stroke="none" stroke-width="0" stroke-linecap="butt"/><g stroke="#000000" stroke-width="1.25" stroke-linecap="round"><path d="M189.60132,146.00221h18.01355v5.65132h6.18112v6.18112h6.00451v5.65131h7.06414v13.59847h24.98645v-5.82791h7.06414v-7.06413h23.66486v6.16588h6.94187v6.7271h-6.20963v6.20964h-6.8306v-6.62361h5.1747h0.70535v-5.36793h-11.78417v24.15388h-5.386v5.77667h-26.47042h-23.52864v-5.48952h-7.90491v-6.07506h-5.34313v-20.3203v-10.97154h-4.538h-2.11512v-7.46574h-5.7091z" fill="#ff0000"/><path d="M189.86217,207.33113h18.22222v-5.55556h6.44445v5.44445h33.55556h9.77778v-5.55555h6.66666v5.66667h11.44445v-12.77778h6.44444v-5.88889h8v6.88889h-7.33333v12.33334h-6v6.11111h-37.22222h-50z" fill="#308900"/></g></g></g></svg>